<?xml version="1.0" encoding="utf-8"?>
<!-- Generator: Adobe Illustrator 19.2.1, SVG Export Plug-In . SVG Version: 6.00 Build 0)  -->
<svg version="1.1" xmlns="http://www.w3.org/2000/svg" xmlns:xlink="http://www.w3.org/1999/xlink" x="0px" y="0px"
	 viewBox="0 0 40 48" style="enable-background:new 0 0 40 48;" xml:space="preserve">
<style type="text/css">
	.st0{display:none;}
	.st1{clip-path:url(#SVGID_2_);}
	.st2{fill:#F6F6F6;}
	.st3{fill:#E0E0E0;}
	.st4{clip-path:url(#SVGID_4_);}
	.st5{fill:#68AB46;}
	.st6{fill:#5C973E;}
	.st7{clip-path:url(#SVGID_6_);fill:#5C973E;}
	.st8{clip-path:url(#SVGID_8_);fill:#B3D5A2;}
	.st9{fill:#FFFFFF;}
	.st10{clip-path:url(#SVGID_10_);}
	.st11{clip-path:url(#SVGID_12_);}
	.st12{fill:#3098D8;}
	.st13{fill:#2C8AC4;}
	.st14{clip-path:url(#SVGID_14_);fill:#2C8AC4;}
	.st15{clip-path:url(#SVGID_16_);fill:#97CBEB;}
	.st16{clip-path:url(#SVGID_18_);}
	.st17{clip-path:url(#SVGID_20_);}
	.st18{clip-path:url(#SVGID_22_);}
	.st19{fill:#F78852;}
	.st20{fill:#E27140;}
	.st21{clip-path:url(#SVGID_24_);fill:#E27140;}
	.st22{clip-path:url(#SVGID_26_);fill:#FBC3A8;}
	.st23{clip-path:url(#SVGID_28_);}
	.st24{clip-path:url(#SVGID_30_);}
	.st25{fill:#D84953;}
	.st26{fill:#C4434C;}
	.st27{clip-path:url(#SVGID_32_);fill:#C4434C;}
	.st28{clip-path:url(#SVGID_34_);fill:#ECA4A9;}
	.st29{clip-path:url(#SVGID_36_);}
	.st30{clip-path:url(#SVGID_38_);}
	.st31{fill:#74BD71;}
	.st32{fill:#6AAD68;}
	.st33{clip-path:url(#SVGID_40_);fill:#6AAD68;}
	.st34{clip-path:url(#SVGID_42_);fill:#B9DEB8;}
	.st35{clip-path:url(#SVGID_44_);fill:#E0E0E0;}
	.st36{clip-path:url(#SVGID_46_);}
	.st37{clip-path:url(#SVGID_48_);}
	.st38{fill:#7BB2D1;}
	.st39{fill:#679FB7;}
	.st40{clip-path:url(#SVGID_50_);fill:#679FB7;}
	.st41{clip-path:url(#SVGID_52_);fill:#BDD8E8;}
	.st42{clip-path:url(#SVGID_54_);}
	.st43{fill:#F0A063;}
	.st44{fill:#DB8951;}
	.st45{clip-path:url(#SVGID_56_);fill:#DB8951;}
	.st46{clip-path:url(#SVGID_58_);fill:#F8CFB1;}
	.st47{clip-path:url(#SVGID_60_);}
	.st48{clip-path:url(#SVGID_62_);}
	.st49{fill:#277CB0;}
	.st50{fill:#236E9C;}
	.st51{clip-path:url(#SVGID_64_);fill:#236E9C;}
	.st52{clip-path:url(#SVGID_66_);fill:#93BDD7;}
	.st53{clip-path:url(#SVGID_68_);}
	.st54{clip-path:url(#SVGID_70_);}
	.st55{fill:#5E68BD;}
	.st56{fill:#4D5599;}
	.st57{clip-path:url(#SVGID_72_);fill:#4D5599;}
	.st58{clip-path:url(#SVGID_74_);fill:#AEB3DE;}
	.st59{fill:#EBCFCF;}
	.st60{clip-path:url(#SVGID_76_);}
	.st61{clip-path:url(#SVGID_78_);}
	.st62{fill:#EFBE2C;}
	.st63{fill:#E0AD1F;}
	.st64{clip-path:url(#SVGID_80_);fill:#E0AD1F;}
	.st65{clip-path:url(#SVGID_82_);fill:#F5D576;}
	.st66{clip-path:url(#SVGID_84_);}
	.st67{clip-path:url(#SVGID_86_);}
	.st68{fill:#1A708A;}
	.st69{fill:#175F76;}
	.st70{clip-path:url(#SVGID_88_);fill:#175F76;}
	.st71{clip-path:url(#SVGID_90_);fill:#8DB7C4;}
	.st72{clip-path:url(#SVGID_92_);}
	.st73{clip-path:url(#SVGID_94_);}
	.st74{fill:#9A50A6;}
	.st75{fill:#884792;}
	.st76{clip-path:url(#SVGID_96_);fill:#884792;}
	.st77{clip-path:url(#SVGID_98_);fill:#CDACD2;}
	.st78{clip-path:url(#SVGID_100_);}
	.st79{clip-path:url(#SVGID_102_);}
	.st80{fill:#549669;}
	.st81{fill:#4C865F;}
	.st82{clip-path:url(#SVGID_104_);fill:#4C865F;}
	.st83{clip-path:url(#SVGID_106_);fill:#91B79E;}
	.st84{clip-path:url(#SVGID_108_);}
	.st85{fill:#94BCD4;}
	.st86{fill:#86AAC0;}
	.st87{clip-path:url(#SVGID_110_);fill:#86AAC0;}
	.st88{clip-path:url(#SVGID_112_);fill:#CADDE9;}
	.st89{clip-path:url(#SVGID_114_);}
	.st90{clip-path:url(#SVGID_116_);}
	.st91{fill:#648091;}
	.st92{fill:#566F7D;}
	.st93{clip-path:url(#SVGID_118_);fill:#566F7D;}
	.st94{clip-path:url(#SVGID_120_);fill:#8F9DA6;}
	.st95{clip-path:url(#SVGID_122_);}
	.st96{clip-path:url(#SVGID_124_);}
	.st97{fill:#2DB7ED;}
	.st98{fill:#2AA6D9;}
	.st99{clip-path:url(#SVGID_126_);fill:#2AA6D9;}
	.st100{clip-path:url(#SVGID_128_);fill:#B1E2F6;}
	.st101{clip-path:url(#SVGID_130_);}
	.st102{clip-path:url(#SVGID_132_);}
	.st103{fill:#006BB8;}
	.st104{fill:#015EA4;}
	.st105{clip-path:url(#SVGID_134_);fill:#015EA4;}
	.st106{clip-path:url(#SVGID_136_);fill:#669AC1;}
	.st107{clip-path:url(#SVGID_138_);}
	.st108{clip-path:url(#SVGID_140_);}
	.st109{fill:#E6E6E6;}
	.st110{fill:#D2D2D2;}
	.st111{clip-path:url(#SVGID_142_);fill:#D2D2D2;}
	.st112{clip-path:url(#SVGID_144_);fill:#EFEFEF;}
	.st113{clip-path:url(#SVGID_146_);}
	.st114{clip-path:url(#SVGID_148_);}
	.st115{clip-path:url(#SVGID_150_);fill:#2AA6D9;}
	.st116{clip-path:url(#SVGID_152_);fill:#B1E2F6;}
	.st117{clip-path:url(#SVGID_154_);}
	.st118{clip-path:url(#SVGID_156_);}
	.st119{clip-path:url(#SVGID_158_);fill:#2AA6D9;}
	.st120{clip-path:url(#SVGID_160_);fill:#B1E2F6;}
	.st121{clip-path:url(#SVGID_162_);}
	.st122{clip-path:url(#SVGID_164_);}
	.st123{clip-path:url(#SVGID_166_);fill:#2AA6D9;}
	.st124{clip-path:url(#SVGID_168_);fill:#B1E2F6;}
</style>
<g id="Guides_For_Artboard" class="st0">
</g>
<g id="Layer_1">
	<g>
		<g>
			<defs>
				<rect id="SVGID_27_" y="18" width="40" height="30"/>
			</defs>
			<clipPath id="SVGID_2_">
				<use xlink:href="#SVGID_27_"  style="overflow:visible;"/>
			</clipPath>
			<g class="st1">
				<path class="st2" d="M5,47.5c-2.5,0-4.5-2-4.5-4.5V5c0-2.5,2-4.5,4.5-4.5h23.8l10.7,10.7V43c0,2.5-2,4.5-4.5,4.5H5z"/>
				<path class="st3" d="M28.6,1L39,11.4V43c0,2.2-1.8,4-4,4H5c-2.2,0-4-1.8-4-4V5c0-2.2,1.8-4,4-4H28.6 M29,0H5C2.2,0,0,2.2,0,5v38
					c0,2.8,2.2,5,5,5h30c2.8,0,5-2.2,5-5V11L29,0L29,0z"/>
			</g>
		</g>
		<g>
			<path class="st3" d="M33.2,31.5c0,0.8-0.7,1.5-1.5,1.5H18.2c-0.8,0-1.5-0.7-1.5-1.5c0-0.8,0.7-1.5,1.5-1.5h13.5
				C32.6,30,33.2,30.7,33.2,31.5z"/>
			<path class="st3" d="M33.2,37.5c0,0.8-0.7,1.5-1.5,1.5H18.2c-0.8,0-1.5-0.7-1.5-1.5c0-0.8,0.7-1.5,1.5-1.5h13.5
				C32.6,36,33.2,36.7,33.2,37.5z"/>
			<path class="st3" d="M33.8,25.5c0,0.8-0.7,1.5-1.5,1.5H7.8c-0.8,0-1.5-0.7-1.5-1.5S6.9,24,7.8,24h24.5
				C33.1,24,33.8,24.7,33.8,25.5z"/>
		</g>
		<g>
			<defs>
				<rect id="SVGID_29_" width="40" height="18"/>
			</defs>
			<clipPath id="SVGID_4_">
				<use xlink:href="#SVGID_29_"  style="overflow:visible;"/>
			</clipPath>
			<g class="st4">
				<path class="st25" d="M5,47.5c-2.5,0-4.5-2-4.5-4.5V5c0-2.5,2-4.5,4.5-4.5h23.8l10.7,10.7V43c0,2.5-2,4.5-4.5,4.5H5z"/>
				<path class="st26" d="M28.6,1L39,11.4V43c0,2.2-1.8,4-4,4H5c-2.2,0-4-1.8-4-4V5c0-2.2,1.8-4,4-4H28.6 M29,0H5C2.2,0,0,2.2,0,5
					v38c0,2.8,2.2,5,5,5h30c2.8,0,5-2.2,5-5V11L29,0L29,0z"/>
			</g>
			<g class="st4">
				<defs>
					<path id="SVGID_31_" d="M40,43c0,2.8-2.2,5-5,5H5c-2.8,0-5-2.2-5-5V5c0-2.8,2.2-5,5-5h24l11,11V43z"/>
				</defs>
				<clipPath id="SVGID_6_">
					<use xlink:href="#SVGID_31_"  style="overflow:visible;"/>
				</clipPath>
				<polygon style="clip-path:url(#SVGID_6_);fill:#C4434C;" points="30.4,9.5 40.1,19.2 40.1,9.5 				"/>
			</g>
			<g class="st4">
				<defs>
					<path id="SVGID_33_" d="M40,43c0,2.8-2.2,5-5,5H5c-2.8,0-5-2.2-5-5V5c0-2.8,2.2-5,5-5h24l11,11V43z"/>
				</defs>
				<clipPath id="SVGID_8_">
					<use xlink:href="#SVGID_33_"  style="overflow:visible;"/>
				</clipPath>
				<path style="clip-path:url(#SVGID_8_);fill:#ECA4A9;" d="M40,11h-6c-2.8,0-5-2.2-5-5V0h11V11z"/>
			</g>
		</g>
		<g>
			<path class="st9" d="M5.6,6.2h2c0.5,0,1,0.2,1.3,0.5C9.2,7,9.4,7.4,9.4,7.9c0,0.3-0.1,0.6-0.2,0.9C9,9.2,8.7,9.4,8.4,9.5
				C8.1,9.7,7.8,9.7,7.6,9.7l-0.7,0V12H5.6V6.2z M6.8,7.3v1.5h0.5c0.2,0,0.4-0.1,0.5-0.2C8,8.4,8.1,8.2,8.1,8c0-0.2-0.1-0.4-0.3-0.5
				C7.7,7.3,7.4,7.2,7.1,7.2L6.8,7.3z"/>
			<path class="st9" d="M10.3,6.2h2c0.8,0,1.5,0.3,2,0.8c0.5,0.5,0.8,1.2,0.8,2.1c0,0.9-0.3,1.6-0.8,2.1c-0.5,0.5-1.2,0.8-2.1,0.8
				h-1.9V6.2z M11.6,7.3v3.6h0.5c0.5,0,0.9-0.1,1.3-0.4c0.3-0.3,0.5-0.7,0.5-1.4c0-0.4-0.1-0.7-0.2-1c-0.2-0.3-0.4-0.5-0.7-0.6
				c-0.3-0.1-0.6-0.2-0.9-0.2H11.6z"/>
			<path class="st9" d="M16.1,6.2h3.2v1.1h-2v1.2h2v1.1h-2V12h-1.2V6.2z"/>
		</g>
		<path class="st3" d="M14,37.5c0,0.8-0.7,1.5-1.5,1.5h-5C6.7,39,6,38.3,6,37.5v-6C6,30.7,6.7,30,7.5,30h5c0.8,0,1.5,0.7,1.5,1.5
			V37.5z"/>
	</g>
</g>
<g id="Layer_2">
</g>
</svg>
