<svg id="Layer_1" data-name="Layer 1" xmlns="http://www.w3.org/2000/svg" width="200" height="246.5" viewBox="0 0 200 246.5"><defs><style>.cls-1{fill:#fff;}</style></defs><title>Artboard 1</title><path class="cls-1" d="M66.7,144a10,10,0,0,0-6-1.6H48.5v18.5H61c3.1-.1,5.5-1.1,7-3a9.88,9.88,0,0,0,2.2-6.3,11.42,11.42,0,0,0-.9-4.8A7,7,0,0,0,66.7,144Z"/><path class="cls-1" d="M116,147.2a11,11,0,0,0-9.9-4.8h-10v40.8h10c4.7,0,8.1-1.7,10.2-5a10.52,10.52,0,0,0,1.8-4.7c.2-1.9.3-5.3.3-10.4s-.1-8.5-.3-10.7A9.43,9.43,0,0,0,116,147.2Z"/><path class="cls-1" d="M122.9,79.4V1.1H4.3A4.25,4.25,0,0,0,0,5.3V242.2a4.27,4.27,0,0,0,4.3,4.3H195.8a4.33,4.33,0,0,0,4.3-4.3V79.4Zm-48.6,84c-3,3.6-7.3,5.5-13,5.6H48.5v22.3H40.1V134.2H60.2a32.07,32.07,0,0,1,6.3.6,15.65,15.65,0,0,1,6.1,3.4,13.42,13.42,0,0,1,4.3,5.5,18.59,18.59,0,0,1,1.7,8.1A17.58,17.58,0,0,1,74.3,163.4Zm51.9,12.2a15.91,15.91,0,0,1-.9,3.3,28.81,28.81,0,0,1-1.6,2.9,19.83,19.83,0,0,1-6.8,6.7,18.72,18.72,0,0,1-10.5,2.8H87.7V134.2h19.4c7.5.1,13.1,3.3,16.9,9.6a17.12,17.12,0,0,1,2.5,6.7,115.62,115.62,0,0,1,.4,12.2C126.9,168.9,126.7,173.2,126.2,175.6Zm47.4-33.2h-27v16.9h23V167h-23v24.4h-8.4V134.3h35.4Z"/><polygon class="cls-1" points="136.9 0 136.9 63.1 199.6 63.1 136.9 0"/></svg>