<svg xmlns="http://www.w3.org/2000/svg" width="121" height="76.403" viewBox="0 0 121 76.403"><defs><style>.a{fill:#004a87;}.b{fill:#00b3e3;}</style></defs><g transform="translate(-2.5 -1.106)"><g transform="translate(21.577 1.106)"><g transform="translate(57.28 0.003)"><path class="a" d="M184.313,2.124a13.432,13.432,0,0,0-7.844-.775,9.077,9.077,0,0,0-7.457,5.762c-2.76,7.457-2.76,18.157-3.874,22.418C163.25,36.889,160.2,38,160.2,38a14.379,14.379,0,0,0,1.937.242A14.006,14.006,0,0,0,166.495,38a15.89,15.89,0,0,0,3.147-1.114c3.68-1.84,5.278-5.229,5.81-10.846.775-7.505,2.082-17.092,3.1-19.271,2.179-4.794,5.762-4.648,5.762-4.648" transform="translate(-160.2 -1.113)"/></g><path class="a" d="M66.061,2.12a14.906,14.906,0,0,0-2.76-.775,13.651,13.651,0,0,0-5.084,0,10.712,10.712,0,0,0-2.663.775,10.919,10.919,0,0,0-2.663,1.84A9.525,9.525,0,0,0,50.712,7.3c-2.76,7.457-2.76,17.964-3.874,22.224C44.95,36.885,41.9,38,41.9,38a12.48,12.48,0,0,0,6.295,0c5.956-1.4,8.328-4.987,9.006-12.008C57.975,18.486,59.283,8.9,60.3,6.72c2.227-4.745,5.762-4.6,5.762-4.6" transform="translate(-41.9 -1.106)"/></g><g transform="translate(35.231 1.11)"><path class="b" d="M70.1,2.124a13.432,13.432,0,0,1,7.844-.775A9.078,9.078,0,0,1,85.4,7.111c2.76,7.457,2.76,18.157,3.874,22.418C91.162,36.889,94.213,38,94.213,38a12.48,12.48,0,0,1-6.295,0c-5.907-1.4-8.28-4.987-9.006-12.008-.775-7.505-2.082-17.092-3.1-19.271-2.13-4.745-5.713-4.6-5.713-4.6" transform="translate(-70.1 -1.113)"/></g><g transform="translate(48.063 1.11)"><path class="b" d="M96.6,2.124a13.432,13.432,0,0,1,7.844-.775c3.389.581,6.2,2.421,7.408,5.762,2.808,7.457,2.808,18.157,3.874,22.418,1.888,7.36,4.939,8.473,4.939,8.473a12.48,12.48,0,0,1-6.295,0c-5.907-1.4-8.28-4.987-8.958-12.008-.726-7.505-2.082-17.092-3.05-19.271-2.179-4.745-5.762-4.6-5.762-4.6" transform="translate(-96.6 -1.113)"/></g><g transform="translate(60.845 1.11)"><path class="b" d="M123,2.124a13.323,13.323,0,0,1,7.844-.775A9.078,9.078,0,0,1,138.3,7.111c2.76,7.457,2.76,18.157,3.874,22.418,1.888,7.36,4.987,8.473,4.987,8.473a13.823,13.823,0,0,1-3.147.339,13.3,13.3,0,0,1-3.2-.339c-5.907-1.4-8.28-4.987-9.006-12.008-.775-7.505-2.082-17.092-3.1-19.271-2.179-4.745-5.713-4.6-5.713-4.6" transform="translate(-123 -1.113)"/></g><g transform="translate(2.5 46.666)"><path class="a" d="M17.607,112.873c0-8.861,0-11.33.1-14.284-1.065,3.389-1.549,4.794-4.745,14.284H10.2c-2.227-6.924-3.535-10.41-4.7-14.284.1,3.147.1,5.423.1,14.284H2.5V95.2H7.1c2.276,6.585,3.486,9.974,4.551,13.509,1.017-3.438,1.743-5.568,4.455-13.509h4.551v17.673Z" transform="translate(-2.5 -95.2)"/><g transform="translate(20.433 4.842)"><path class="a" d="M56.272,114.932a5.423,5.423,0,0,1-5.423,3.486c-4.019,0-6.149-2.615-6.149-6.73,0-3.97,2.421-6.488,6.052-6.488,3.97,0,5.617,2.905,5.617,7.36H47.654c.1,2.179,1.259,3.389,3.244,3.389a2.643,2.643,0,0,0,2.808-1.937Zm-2.905-4.455c-.1-1.937-1.114-2.954-2.711-2.954s-2.76,1.017-3,2.954Z" transform="translate(-44.7 -105.2)"/></g><g transform="translate(33.216 4.842)"><path class="a" d="M73.376,114.109a3.513,3.513,0,0,0,3.2,2.034c1.259,0,1.985-.533,1.985-1.307,0-.823-.436-1.162-2.324-1.792l-1.307-.436c-1.937-.581-3.147-1.743-3.147-3.631,0-1.937,1.743-3.777,4.842-3.777a5.487,5.487,0,0,1,4.89,2.518l-2.179,1.5a3.124,3.124,0,0,0-2.76-1.743c-1.259,0-1.84.484-1.84,1.21,0,.775.387,1.114,1.985,1.6l1.307.387c2.227.678,3.438,1.743,3.438,3.728,0,2.324-1.937,3.97-5.036,3.97a6.028,6.028,0,0,1-5.326-2.808Z" transform="translate(-71.1 -105.2)"/></g><g transform="translate(44.982 4.939)"><path class="a" d="M103.292,109.709a2,2,0,0,0-.484-1.5,2.5,2.5,0,0,0-1.743-.533,2.115,2.115,0,0,0-2.373,2.179l-2.808-.242c.194-2.711,2.227-4.212,5.375-4.212a5.011,5.011,0,0,1,3.728,1.21c.775.726,1.065,1.743,1.065,3.728v4.6a10.524,10.524,0,0,0,.339,3.293h-2.808a8.586,8.586,0,0,1-.242-1.549,5.037,5.037,0,0,1-4.067,1.792,3.586,3.586,0,0,1-3.874-3.68,3.492,3.492,0,0,1,2.276-3.341,19.113,19.113,0,0,1,5.617-1.017v-.726Zm0,2.615a12.264,12.264,0,0,0-3.97.775,1.532,1.532,0,0,0-1.065,1.549c0,.92.581,1.6,1.888,1.6a3.1,3.1,0,0,0,2.615-1.307,3.5,3.5,0,0,0,.533-1.985Z" transform="translate(-95.4 -105.4)"/></g></g><g transform="translate(59.005 46.666)"><path class="b" d="M134.113,112.873c-2.082-7.7-2.711-10.168-3.389-13.412-.775,3.244-1.356,5.617-3.631,13.412H123.8L119.2,95.2h3.389c1.21,5.084,2.179,9.1,3.2,13.654.823-3.631,1.6-6.73,3.341-13.654h3.147c1.356,5.278,2.615,10.12,3.438,13.654.339-1.985,1.21-6,3.1-13.654H142.1l-4.7,17.673Z" transform="translate(-119.2 -95.2)"/></g><g transform="translate(81.375 51.605)"><path class="b" d="M173.292,109.709a2,2,0,0,0-.484-1.5,2.5,2.5,0,0,0-1.743-.533,2.115,2.115,0,0,0-2.373,2.179l-2.808-.242c.194-2.711,2.227-4.212,5.375-4.212a5.011,5.011,0,0,1,3.728,1.21c.775.726,1.065,1.743,1.065,3.728v4.6a10.524,10.524,0,0,0,.339,3.293h-2.808a8.586,8.586,0,0,1-.242-1.549,5.037,5.037,0,0,1-4.067,1.792,3.586,3.586,0,0,1-3.874-3.68,3.492,3.492,0,0,1,2.276-3.341,19.114,19.114,0,0,1,5.617-1.017Zm0,2.615a12.264,12.264,0,0,0-3.97.775,1.532,1.532,0,0,0-1.065,1.549c0,.92.581,1.6,1.888,1.6a3.1,3.1,0,0,0,2.615-1.307,3.5,3.5,0,0,0,.533-1.985Z" transform="translate(-165.4 -105.4)"/></g><g transform="translate(93.771 47.828)"><path class="b" d="M198.36,114.063a7.9,7.9,0,0,1-2.179.291,3.133,3.133,0,0,1-2.566-.92,3.828,3.828,0,0,1-.678-2.615v-6.827H191v-2.324h1.985V97.6h2.905v4.067h2.421v2.373H195.89v6.246c0,1.259.387,1.743,1.259,1.743a3.839,3.839,0,0,0,1.21-.242v2.276Z" transform="translate(-191 -97.6)"/></g><g transform="translate(102.292 51.508)"><path class="b" d="M220.172,114.932a5.423,5.423,0,0,1-5.423,3.486c-4.019,0-6.149-2.615-6.149-6.73,0-3.97,2.421-6.488,6.052-6.488,3.97,0,5.617,2.905,5.617,7.36h-8.715c.1,2.179,1.259,3.389,3.244,3.389a2.643,2.643,0,0,0,2.808-1.937Zm-2.905-4.455c-.1-1.937-1.114-2.954-2.711-2.954s-2.76,1.017-3,2.954Z" transform="translate(-208.6 -105.2)"/></g><g transform="translate(116.189 51.75)"><path class="b" d="M237.3,118.289V105.845h2.808v1.937a3.6,3.6,0,0,1,3.438-2.082,4.033,4.033,0,0,1,1.065.145V108.8a2.978,2.978,0,0,0-3.777.872,4.822,4.822,0,0,0-.629,2.808v5.81Z" transform="translate(-237.3 -105.7)"/></g><g transform="translate(94.303 71.069)"><path class="a" d="M192.487,145.891a.985.985,0,0,1,.726-.291,1.064,1.064,0,0,1,.872.387.781.781,0,0,1,.145.436h-.484a1.06,1.06,0,0,0-.145-.242.55.55,0,0,0-.387-.145.508.508,0,0,0-.436.242,1.1,1.1,0,0,0-.145.629.841.841,0,0,0,.145.581.472.472,0,0,0,.436.194.393.393,0,0,0,.387-.194.789.789,0,0,0,.145-.291h.484a1.013,1.013,0,0,1-.339.629,1.05,1.05,0,0,1-.678.242,1,1,0,0,1-.823-.339,1.4,1.4,0,0,1-.291-.92A1.455,1.455,0,0,1,192.487,145.891Z" transform="translate(-192.1 -145.6)"/></g><g transform="translate(33.392 69.52)"><g transform="translate(0 0.194)"><path class="a" d="M66.3,142.8h2.373a5.184,5.184,0,0,1,2.518.387c1.065.533,1.549,1.792,1.549,3.341a4.251,4.251,0,0,1-.968,2.954c-.678.678-1.6.92-3.147.92H66.348l-.048-7.6Zm2.324,6.44a2.51,2.51,0,0,0,2.082-.678,3.069,3.069,0,0,0,.533-2.082,2.86,2.86,0,0,0-.581-1.985,2.189,2.189,0,0,0-1.84-.581H67.656v5.278h.968Z" transform="translate(-66.3 -142.8)"/></g><g transform="translate(9.684 0.194)"><path class="a" d="M87.7,150.4H86.3v-7.6h1.4Z" transform="translate(-86.3 -142.8)"/></g><g transform="translate(13.993)"><path class="a" d="M96.362,147.823a2.146,2.146,0,0,0,1.985,1.356c.92,0,1.453-.387,1.453-.968,0-.533-.339-.775-1.453-1.162l-.823-.291c-1.307-.484-1.888-1.065-1.888-2.179,0-1.307,1.162-2.179,2.712-2.179a3.146,3.146,0,0,1,2.905,1.549l-1.114.775a2.057,2.057,0,0,0-1.937-1.162c-.775,0-1.21.387-1.21.92,0,.484.291.726,1.259,1.065l.872.29c1.4.436,2.082,1.065,2.082,2.227,0,1.356-1.114,2.324-2.905,2.324a3.372,3.372,0,0,1-3.1-1.743Z" transform="translate(-95.2 -142.4)"/></g><g transform="translate(22.176 0.194)"><path class="a" d="M114.23,150.4v-6.44H112.1V142.8h5.713v1.162h-2.179v6.44Z" transform="translate(-112.1 -142.8)"/></g><g transform="translate(30.262 0.194)"><path class="a" d="M133.4,150.4l-1.937-3.05h-1.307v3.05H128.8v-7.6h2.469a5.9,5.9,0,0,1,2.276.29,1.852,1.852,0,0,1,1.162,1.985,1.978,1.978,0,0,1-1.888,2.13L135,150.45h-1.6Zm-1.792-4.164a2.069,2.069,0,0,0,1.307-.291,1.1,1.1,0,0,0,.387-.92.96.96,0,0,0-.436-.92,2.475,2.475,0,0,0-1.259-.242h-1.453v2.324l1.453.048Z" transform="translate(-128.8 -142.8)"/></g><g transform="translate(39.462 0.194)"><path class="a" d="M149.2,150.4h-1.4v-7.6h1.4Z" transform="translate(-147.8 -142.8)"/></g><g transform="translate(43.916 0.048)"><path class="a" d="M162.132,145.018a1.56,1.56,0,0,0-1.549-1.356c-1.4,0-2.13,1.017-2.13,2.663,0,1.743.775,2.857,2.13,2.857a1.661,1.661,0,0,0,1.695-1.4l1.307.484a3.066,3.066,0,0,1-3.05,2.179c-2.179,0-3.535-1.549-3.535-4.019,0-2.518,1.453-3.922,3.583-3.922a2.807,2.807,0,0,1,2.905,2.082Z" transform="translate(-157 -142.5)"/></g><g transform="translate(52.729 0.194)"><path class="a" d="M177.33,150.4v-6.44H175.2V142.8h5.714v1.162h-2.179v6.44Z" transform="translate(-175.2 -142.8)"/></g><g transform="translate(59.12)"><path class="a" d="M191.208,148.017a2.808,2.808,0,1,1,2.808-2.808A2.78,2.78,0,0,1,191.208,148.017Zm0-5.278a2.469,2.469,0,1,0,2.469,2.469A2.391,2.391,0,0,0,191.208,142.739Z" transform="translate(-188.4 -142.4)"/></g></g></g></svg>